<?xml version="1.0" encoding="utf-8"?>
<!-- Generator: Adobe Illustrator 13.0.0, SVG Export Plug-In . SVG Version: 6.00 Build 14948)  -->
<!DOCTYPE svg PUBLIC "-//W3C//DTD SVG 1.1//EN" "http://www.w3.org/Graphics/SVG/1.1/DTD/svg11.dtd">
<svg version="1.1" id="Calque_1" xmlns="http://www.w3.org/2000/svg" xmlns:xlink="http://www.w3.org/1999/xlink" x="0px" y="0px"
	 width="800px" height="600px" viewBox="0 0 800 600" enable-background="new 0 0 800 600" xml:space="preserve">
<g>
	<path fill="#EF8A1B" d="M174.4,100.6L173.9,245h-20l0-98l-58.8,98.1h-7.4l-57-97.8l-0.1,97.8l-19.4,0.3l-0.1-144.8h19.6l60.7,108.9
		L154,100.6L174.4,100.6z"/>
	<path fill="#EF8A1B" d="M441.2,101.9h20v143.8h-7.7L367.4,147v98.7h-20.6V101.9h7.7l86.8,100V101.9z"/>
	<path fill="#EF8A1B" d="M628.1,172.1l-0.2,3.2c0,22.1-6.6,39.8-19.8,53c-13,13-30.5,19.6-52.3,19.6c-13.5,0-25.3-2.2-35.5-6.6
		c-10.5-4.7-19.6-11.5-27.4-20.4c-11.9-14-17.9-30.1-17.9-48.3c0-13.5,3.5-26.2,10.4-38.1c6.8-11.6,16.2-20.8,28.1-27.4
		c11.8-6.7,25.2-10,40.2-10c6,0,11.8,0.6,17.4,1.7c5.7,1.1,11.2,2.8,16.6,4.9c10.5,4.4,20.9,11.3,31.3,20.8l2.3,2.3L606,141.5
		l-2.1-2.3c-7.5-7.4-15.6-12.8-24.2-16.4c-8.4-3.7-16.9-5.5-25.5-5.5c-10.2,0-19.9,2.5-29.1,7.4c-9.5,5.1-16.7,11.9-21.5,20.4
		c-5.1,8.5-7.7,17.5-7.7,27c0,9.9,2.6,19.2,7.9,27.9c5.4,9.1,12.6,16,21.7,20.8c9.4,5.1,19.6,7.7,30.6,7.7c13.5,0,24.8-3.8,34-11.3
		c2.3-1.8,4.3-3.8,6.1-6c1.8-2.1,3.4-4.4,4.8-6.8c2-3.5,3.5-7.7,4.7-12.5h-43.2v-19.8H628.1z"/>
	<path fill="#EF8A1B" d="M766.4,119.1c14.6,14.6,21.9,32.5,21.9,53.6c0,21.1-7.3,39-21.9,53.6c-14.6,14.6-32.4,21.9-53.4,21.9
		c-21.1,0-39.1-7.3-54-21.9c-14.6-14.6-21.9-32.3-21.9-53c0-13.8,3.3-26.5,10-38.3c6.7-11.8,15.8-21,27.4-27.6
		c11.3-6.7,23.7-10,37.2-10C733.4,97.4,751.6,104.7,766.4,119.1z M767.7,172.7c0-10.3-2.3-19.7-7-28.1c-4.8-8.2-11.6-14.9-20.4-20
		c-8.8-5-18.1-7.4-27.9-7.4c-9.5,0-18.6,2.5-27.2,7.4c-8.5,5.1-15.2,11.8-20.2,20.2c-4.8,8.4-7.2,17.9-7.2,28.5
		c0,7.9,1.3,15.1,4,21.5c2.6,6.4,6.5,12.3,11.9,17.7c5.4,5.4,11.3,9.4,17.9,11.9c6.2,2.7,13.2,4,20.8,4c9.9,0,19.3-2.4,28.1-7.2
		c8.6-5,15.3-11.7,20-20.2C765.2,192.8,767.7,183.4,767.7,172.7z"/>
	<path fill="#EF8A1B" d="M30.6,325l86.1,103.5H97.9l-27-32.9H30.7l0.2,32.9H15.1L15.2,325H30.6z M58.8,381.3l-27.9-33.8l0.1,34
		L58.8,381.3z"/>
	<path fill="#EF8A1B" d="M191.6,325.6h14.3v103h-5.5l-61.7-70.7v70.7h-14.8v-103h5.5l62.2,71.6V325.6z"/>
	<path fill="#EF8A1B" d="M288.8,325.6h14.3v103h-5.5l-61.7-70.7v70.7h-14.8v-103h5.5l62.2,71.6V325.6z"/>
	<path fill="#EF8A1B" d="M397.8,325.6h14.5v103h-14.5V325.6z"/>
	<path fill="#EF8A1B" d="M771.6,337.9c10.5,10.5,15.7,23.3,15.7,38.4c0,15.1-5.2,27.9-15.7,38.4c-10.5,10.5-23.2,15.7-38.3,15.7
		c-15.1,0-28-5.2-38.7-15.7c-10.5-10.5-15.7-23.1-15.7-38c0-9.9,2.4-19,7.2-27.4c4.8-8.4,11.3-15,19.7-19.8c8.1-4.8,17-7.2,26.7-7.2
		C747.9,322.4,761,327.5,771.6,337.9z M772.5,376.3c0-7.4-1.7-14.1-5-20.1c-3.5-5.9-8.3-10.7-14.6-14.3c-6.3-3.6-13-5.3-20-5.3
		c-6.8,0-13.3,1.8-19.5,5.3c-6.1,3.7-10.9,8.5-14.5,14.5c-3.5,6-5.2,12.8-5.2,20.4c0,5.7,1,10.8,2.9,15.4c1.8,4.6,4.7,8.8,8.5,12.7
		c3.9,3.9,8.1,6.7,12.8,8.5c4.5,1.9,9.5,2.9,14.9,2.9c7.1,0,13.8-1.7,20.1-5.2c6.2-3.6,11-8.4,14.3-14.5
		C770.7,390.7,772.5,383.9,772.5,376.3z"/>
	<rect x="325.8" y="372.1" fill="#EF8A1B" width="52.3" height="13.3"/>
	<path fill="#EF8A1B" d="M210.6,101l121.3,144.8h-26.5l-38.2-46.6h-56.8l0.3,46.6h-22.4l0.2-144.8L210.6,101z M250,179.1l-39.5-47.8
		l0.2,48L250,179.1z"/>
	<path fill="#EF8A1B" d="M543.4,325.3L543,428.1h-14.2l0-69.8L487,428.1h-5.3l-40.5-69.6l-0.1,69.6l-13.8,0.2l0-103h13.9l43.2,77.5
		l44.5-77.4L543.4,325.3z"/>
	<path fill="#EF8A1B" d="M670.1,325.3l-0.4,102.8h-14.2l0-69.8l-41.8,69.8h-5.3l-40.5-69.6l-0.1,69.6l-13.8,0.2l0-103h13.9
		l43.2,77.5l44.5-77.4L670.1,325.3z"/>
	<rect x="10.8" y="243.1" fill="#EF8A1B" width="19.9" height="185.7"/>
</g>
</svg>
